<?xml version="1.0" encoding="utf-8"?>
<!-- Generator: Adobe Illustrator 19.1.0, SVG Export Plug-In . SVG Version: 6.00 Build 0)  -->
<svg version="1.1" id="Layer_1" xmlns="http://www.w3.org/2000/svg" xmlns:xlink="http://www.w3.org/1999/xlink" x="0px" y="0px"
	 viewBox="0 0 550.9 85.6" style="enable-background:new 0 0 550.9 85.6;" xml:space="preserve">
<style type="text/css">
	.st0{fill:#FFFFFF;}
</style>
<rect x="982.2" y="-265.8" width="779.5" height="725.1"/>
<g>
	<path class="st0" d="M0,0.5h20.4C38.4,0.5,41,3,41,18v8.7c0,9.5-0.4,14.3-8.3,17.1c6.4,1.9,8.3,5.7,8.3,13.7V85H23.1V56
		c0-3.4-0.8-4.5-4.2-4.5c-0.3,0-0.6,0-1,0V85H0V0.5z M23.1,19.8c0-0.3,0-0.7,0-1c0-3.5-0.1-4.6-3.6-4.6c-0.5,0-1,0-1.6,0v21.6
		c0.6,0,1.1,0.1,1.7,0.1c2.8,0,3.5-0.8,3.5-3.3c0-0.4,0-1.2,0-2.3V19.8z"/>
	<path class="st0" d="M48.2,0.5h17.8V85H48.2V0.5z"/>
	<path class="st0" d="M73.6,0.5h17.8v70.7H102V85H73.6V0.5z"/>
	<path class="st0" d="M107.2,0.5h28.4v13.6H125v17.6h10.6v13.7H125v25.8h10.6V85h-28.4V0.5z"/>
	<path class="st0" d="M150,51.5l-11.8-51h16.9l4.4,32.6l4.3-32.6h17l-12,51V85H150V51.5z"/>
	<path class="st0" d="M227.4,0C245.1,0,248,1.7,248,17.5v11.8h-17.9V18c0-3-0.5-4.3-2.9-4.3c-2.2,0-2.3,1.7-2.3,4.3v49.5
		c0,2.9,0.6,4.2,2.6,4.2c1.7,0,2.6-0.9,2.6-2.7c0-0.2,0-0.6,0-1.5V55.2h-3.3V41.6H248V85h-7.9l-3.2-5.6c-4.2,5.3-7.8,6.2-14.5,6.2
		c-13.7,0-15.4-5-15.4-17.6V17.5C207,2.1,209.1,0,227.4,0z"/>
	<path class="st0" d="M255.2,0.5h20.4c18,0,20.6,2.5,20.6,17.5v8.7c0,9.5-0.4,14.3-8.3,17.1c6.4,1.9,8.3,5.7,8.3,13.7V85h-17.9V56
		c0-3.4-0.8-4.5-4.2-4.5c-0.3,0-0.6,0-1,0V85h-17.9V0.5z M278.2,19.8c0-0.3,0-0.7,0-1c0-3.5-0.1-4.6-3.6-4.6c-0.5,0-1,0-1.6,0v21.6
		c0.6,0,1.1,0.1,1.7,0.1c2.8,0,3.5-0.8,3.5-3.3c0-0.4,0-1.2,0-2.3V19.8z"/>
	<path class="st0" d="M303.3,0.5h17.8V85h-17.8V0.5z"/>
	<path class="st0" d="M328.8,0.5h28.4v13.6h-10.6v17.6h10.6v13.7h-10.6V85h-17.8V0.5z"/>
	<path class="st0" d="M363.4,0.5h28.4v13.6h-10.6v17.6h10.6v13.7h-10.6V85h-17.8V0.5z"/>
	<path class="st0" d="M398.1,0.5h17.8V85h-17.8V0.5z"/>
	<path class="st0" d="M429.8,14.5h-9.2V0.5h36.1v13.9h-9.2V85h-17.8V14.5z"/>
	<path class="st0" d="M462,0.5h17.8v31.2h5.3V0.5H503V85h-17.9V45.5h-5.3V85H462V0.5z"/>
	<path class="st0" d="M528,51.1v16.5c0,2.9,0.7,4.2,2.7,4.2c1.6,0,2.7-1,2.7-2.6c0-0.2,0-0.7,0-1.6V55c0-3-0.4-4.3-3.5-5.9l-12-6.7
		c-5.8-3.2-7.8-7.9-7.8-15.2v-9.9c0-15.5,2.8-17.4,20.4-17.4c13.5,0,20.4,1,20.4,12.3c0,0.5,0,2.2,0,5.1V30h-17.6V17.9
		c0-2.9-0.4-4.2-2.8-4.2c-2.1,0-2.5,1.6-2.5,4.2v8c0,3,0.5,4.3,3.5,5.9l11,5.9c6.7,3.5,8.3,7.9,8.3,14.6v15.8c0,1.2,0,2.4,0,3.4
		c0,4.4-0.2,7.5-2.2,10.1c-2.8,3.7-8.3,4-17.9,4c-17.4,0-20.7-1.7-20.7-17.5V51.1H528z"/>
</g>
<text transform="matrix(1 0 0 1 -739.8485 28.9839)"><tspan x="0" y="0" class="st0" style="font-family:'CompactaBT-Bold'; font-size:104.0176px;">RI</tspan><tspan x="73.6" y="0" class="st0" style="font-family:'CompactaBT-Bold'; font-size:104.0176px; letter-spacing:-1;">L</tspan><tspan x="107.2" y="0" class="st0" style="font-family:'CompactaBT-Bold'; font-size:104.0176px;">EY GRI</tspan><tspan x="328.8" y="0" class="st0" style="font-family:'CompactaBT-Bold'; font-size:104.0176px;">FFI</tspan><tspan x="423" y="0" class="st0" style="font-family:'CompactaBT-Bold'; font-size:104.0176px;">THS</tspan></text>
</svg>
